<svg xmlns="http://www.w3.org/2000/svg" aria-hidden="true" style="position:absolute;width:0;height:0;overflow:hidden">
  <defs>
    <symbol id="icon-name" viewBox="0 0 199 32">
      <path d="M4.167 1.362v4.707H3.54l-2.37-3.63v3.63H.546V1.362h.624l2.379 3.64v-3.64h.617zm3.342 4.109V3.67a.73.73 0 0 0-.084-.359c-.054-.103-.136-.183-.246-.239s-.246-.084-.407-.084a.955.955 0 0 0-.398.078.7.7 0 0 0-.265.204.45.45 0 0 0-.094.272h-.598c0-.125.032-.249.097-.372s.157-.234.278-.333c.123-.101.269-.181.44-.239.172-.06.364-.091.575-.091.254 0 .478.043.672.129.196.086.349.217.459.391.112.172.168.389.168.65v1.629c0 .116.01.24.029.372.022.131.053.245.094.339v.052h-.624a1.12 1.12 0 0 1-.071-.275 2.245 2.245 0 0 1-.026-.323zm.104-1.523.006.42h-.605c-.17 0-.322.014-.456.042-.134.026-.246.066-.336.12s-.159.122-.207.204a.624.624 0 0 0 .003.582.537.537 0 0 0 .223.217.806.806 0 0 0 .372.078.991.991 0 0 0 .818-.4.617.617 0 0 0 .136-.327l.255.288c-.015.091-.056.191-.123.301a1.458 1.458 0 0 1-.662.566 1.28 1.28 0 0 1-.511.097c-.237 0-.445-.046-.624-.139a1.069 1.069 0 0 1-.414-.372.983.983 0 0 1-.145-.527c0-.188.037-.352.11-.495a.957.957 0 0 1 .317-.359c.138-.097.304-.17.498-.22s.411-.074.65-.074h.695zm2.295-.682v2.803h-.601V2.571h.569l.032.695zm-.123.922-.278-.01c.002-.239.033-.46.094-.663.06-.205.15-.383.268-.533s.266-.267.443-.349c.177-.084.381-.126.614-.126.164 0 .315.024.453.071.138.045.258.117.359.217s.18.226.236.381c.056.155.084.343.084.563V6.07h-.598V3.768a.884.884 0 0 0-.094-.44.532.532 0 0 0-.259-.239.93.93 0 0 0-.394-.078c-.177 0-.324.031-.443.094s-.213.149-.284.259c-.071.11-.123.236-.155.378-.03.14-.045.289-.045.446zm2.266-.33-.401.123a1.74 1.74 0 0 1 .094-.553c.063-.177.152-.334.268-.472.118-.138.264-.247.436-.326.172-.082.37-.123.592-.123.187 0 .353.025.498.074.147.05.269.126.369.23.101.101.178.232.23.391s.078.349.078.569v2.298h-.601V3.764c0-.196-.031-.348-.094-.456a.492.492 0 0 0-.259-.23 1.037 1.037 0 0 0-.394-.068c-.131 0-.248.023-.349.068s-.186.108-.255.188a.812.812 0 0 0-.158.268 1.008 1.008 0 0 0-.052.323zm4.784 2.276c-.244 0-.464-.041-.663-.123a1.524 1.524 0 0 1-.508-.352c-.14-.151-.248-.33-.323-.537s-.113-.433-.113-.679v-.136c0-.284.042-.538.126-.76.084-.224.198-.414.343-.569s.308-.273.491-.352c.183-.08.373-.12.569-.12.25 0 .465.043.647.129.183.086.333.207.449.362.116.153.203.334.259.543.056.207.084.433.084.679v.268h-2.612v-.488h2.014v-.045a1.51 1.51 0 0 0-.097-.453c-.054-.147-.14-.267-.259-.362s-.28-.142-.485-.142a.815.815 0 0 0-.669.339 1.26 1.26 0 0 0-.191.411 2.092 2.092 0 0 0-.068.559v.136c0 .166.023.322.068.469.047.144.115.272.204.381.091.11.199.196.326.259a.99.99 0 0 0 .44.094c.211 0 .39-.043.537-.129s.275-.202.385-.346l.362.288c-.075.114-.171.223-.288.327s-.26.187-.43.252a1.655 1.655 0 0 1-.598.097zM13.793 20.966a1.655 1.655 0 1 0 0-3.31 1.655 1.655 0 0 0 0 3.31zm0 .827c-1.105 0-3.31.554-3.31 1.655v.414c0 .228.186.414.414.414h5.793a.415.415 0 0 0 .414-.414v-.414c0-1.101-2.206-1.655-3.31-1.655z"/>
    </symbol>
    <symbol id="icon-phone-black" viewBox="0 0 24 32">
      <path d="m19.635 18.487-2.451-.28a1.92 1.92 0 0 0-1.582.55l-1.775 1.775a14.514 14.514 0 0 1-6.359-6.359l1.785-1.785c.415-.415.618-.994.55-1.582l-.28-2.432a1.931 1.931 0 0 0-1.92-1.708H5.934c-1.09 0-1.997.907-1.93 1.997.511 8.24 7.102 14.821 15.332 15.332 1.09.068 1.997-.839 1.997-1.93v-1.669a1.913 1.913 0 0 0-1.698-1.911z"/>
    </symbol>
    <symbol id="icon-email-black" viewBox="0 0 24 32">
      <path d="M20 8H4c-1.1 0-1.99.9-1.99 2L2 22c0 1.1.9 2 2 2h16c1.1 0 2-.9 2-2V10c0-1.1-.9-2-2-2zm-.4 4.25-7.07 4.42c-.32.2-.74.2-1.06 0L4.4 12.25a.85.85 0 1 1 .9-1.44L12 15l6.7-4.19a.85.85 0 1 1 .9 1.44z"/>
    </symbol>
    <symbol id="icon-Checkbox" viewBox="0 0 32 32">
      <path stroke-width="2" d="M4 1h24a3 3 0 0 1 3 3v24a3 3 0 0 1-3 3H4a3 3 0 0 1-3-3V4a3 3 0 0 1 3-3z"/>
    </symbol>
    <symbol id="icon-Frame-3" viewBox="0 0 32 32">
      <path d="M0 0h32v32H0V0z"/>
      <path d="M-1644-4405.333H276v4624h-1920v-4624z"/>
      <path d="M-1644-197.333H276v416h-1920v-416z"/>
      <path d="M-150.667-10.667H58.666a5.333 5.333 0 0 1 5.333 5.333v42.667a5.333 5.333 0 0 1-5.333 5.333h-209.333A5.333 5.333 0 0 1-156 37.333V-5.334a5.333 5.333 0 0 1 5.333-5.333z"/>
      <path d="m32 2.667-32 15 10.227 3.156L26 8.5 14.002 21.988l.01.003-.012-.003v7.345l5.735-5.576L27 25.999l5-23.333z"/>
    </symbol>
    <symbol id="icon-astronaut" viewBox="0 0 32 32">
      <path d="M0 0h32v32H0V0z"/>
      <path d="M-560-408h720v1734h-720V-408z"/>
      <path stroke-width=".5" d="M-48-11.75H80c.966 0 1.75.784 1.75 1.75v52A1.75 1.75 0 0 1 80 43.75H-48A1.75 1.75 0 0 1-49.75 42v-52c0-.966.783-1.75 1.75-1.75z"/>
      <path d="M31.974 4.524a.534.534 0 0 0-.43-.363l-1.91-.278-.855-1.731c-.179-.365-.777-.365-.956 0l-.855 1.731-1.91.278a.535.535 0 0 0-.296.91l1.383 1.348-.326 1.903c-.034.2.048.402.212.522a.53.53 0 0 0 .562.04l1.709-.899 1.709.899a.536.536 0 0 0 .775-.563l-.326-1.903 1.383-1.348a.536.536 0 0 0 .135-.547zm-2.463 1.327a.534.534 0 0 0-.153.472l.191 1.114-1-.526a.533.533 0 0 0-.498 0l-1.001.526.191-1.114a.534.534 0 0 0-.153-.472l-.81-.789 1.119-.163a.532.532 0 0 0 .402-.292l.5-1.013.5 1.013a.535.535 0 0 0 .402.292l1.119.163-.809.789zM26.133 20.522h-1.067v1.067h1.067v-1.067zM26.133 22.656h-1.067v1.067h1.067v-1.067zM27.2 21.589h-1.067v1.067H27.2v-1.067zM25.067 21.589H24v1.067h1.067v-1.067zM22.4 26.389h-1.067v1.067H22.4v-1.067zM22.4 28.522h-1.067v1.067H22.4v-1.067zM23.467 27.456H22.4v1.067h1.067v-1.067zM21.333 27.456h-1.067v1.067h1.067v-1.067zM16 24.256h-1.067v1.067H16v-1.067zM16 26.389h-1.067v1.067H16v-1.067zM17.067 25.322H16v1.067h1.067v-1.067zM14.933 25.322h-1.067v1.067h1.067v-1.067zM5.867 6.122H4.8v1.067h1.067V6.122zM5.867 8.255H4.8v1.067h1.067V8.255z"/>
      <path d="M6.933 7.189H5.866v1.067h1.067V7.189zM4.8 7.189H3.733v1.067H4.8V7.189z"/>
      <path d="M24.715 14.159a1.775 1.775 0 0 0-1.188-.705 1.778 1.778 0 0 0-1.34.352l-1.252.96-1.898 1.417-1.358-.541c2.421-1.086 4.114-3.508 4.114-6.32 0-3.823-3.123-6.933-6.961-6.933s-6.961 3.11-6.961 6.933a6.86 6.86 0 0 0 1.12 3.758l-2.764-.024h-.005c-.009 0-.015.004-.023.005a.515.515 0 0 0-.155.031l-.038.013c-.006.003-.013.003-.019.006l-3.233 1.596-.001.001-1.893.911a.397.397 0 0 0-.063.035 1.779 1.779 0 0 0-.598 2.295c.22.429.595.745 1.056.889a1.776 1.776 0 0 0 1.378-.128l1.388-.738 2.264-1.169 1.357-.008L2.2 22.211l-.002.001-1.339 1.333c-.316.315-.49.732-.49 1.178s.174.863.49 1.179c.325.323.752.485 1.179.485s.854-.162 1.18-.485l1.314-1.309 1.741-1.3.901.897-1.762 1.754-.002.001-1.339 1.333c-.316.315-.49.732-.49 1.178s.174.863.49 1.179c.325.323.753.485 1.18.485s.855-.162 1.18-.485l3.482-3.467.001-.002 1.01-1-.004-.004c.006-.006.015-.009.022-.015l5.166-5.658 3.471.494a.52.52 0 0 0 .262-.033c.018-.006.033-.015.05-.023.019-.01.039-.015.058-.027l3.213-2.133c.012-.008.018-.021.029-.029.013-.01.029-.014.041-.026l1.271-1.191c.662-.62.753-1.635.212-2.362zM2.13 17.77a.714.714 0 0 1-.558.052.717.717 0 0 1-.213-1.26l1.314-.632.449 1.313-.992.527zm3.498-1.828-1.548.8-.439-1.283 2.027-1.001-.04 1.484zm15.099-6.62a5.79 5.79 0 0 1-.599 2.559l-4.181-1.899a1.863 1.863 0 0 0-.788-1.388l1.464-4.86c2.378.756 4.105 2.974 4.105 5.588zm-11.789 0c0-3.235 2.644-5.867 5.894-5.867.253 0 .5.021.745.052l-1.432 4.754c-.019-.001-.037-.006-.057-.006-1.033 0-1.873.837-1.873 1.867s.84 1.867 1.873 1.867c.694 0 1.294-.383 1.618-.945l3.862 1.755a5.894 5.894 0 0 1-4.737 2.39c-3.25 0-5.894-2.632-5.894-5.867zm5.956.8c0 .441-.362.8-.806.8s-.806-.359-.806-.8c0-.441.362-.8.806-.8s.806.359.806.8zM2.465 25.146a.608.608 0 0 1-.854.001.592.592 0 0 1 0-.844l.962-.958.851.848-.959.955zm3.214 3.734a.608.608 0 0 1-.855.001.592.592 0 0 1 0-.844l.963-.959.852.848-.96.955zm3.481-3.469-.002.001-1.765 1.76-.852-.848 1.763-1.755.002-.001c.04-.04.065-.088.09-.135.007-.014.02-.026.026-.04.017-.041.019-.085.026-.129.003-.025.014-.047.014-.073 0-.036-.013-.07-.02-.106-.006-.032-.006-.065-.019-.095a.55.55 0 0 0-.091-.138c-.01-.012-.014-.027-.025-.038h-.001l-.001-.002-1.607-1.6c-.017-.017-.039-.024-.058-.038a.507.507 0 0 0-.087-.058.515.515 0 0 0-.093-.033.507.507 0 0 0-.103-.02.5.5 0 0 0-.095.005.53.53 0 0 0-.104.02.477.477 0 0 0-.094.045c-.02.011-.042.015-.061.029L4.23 23.486l-.901-.897 2.399-2.386 4.361 4.289-.928.919zm6.819-7.017c-.015-.002-.03.004-.045.003a.556.556 0 0 0-.3.075.492.492 0 0 0-.083.061c-.013.011-.028.017-.04.029l-4.698 5.146-4.328-4.257 2.833-2.818a.534.534 0 0 0-.379-.911v-.001l-2.219.013.028-1.607 3.104.027a6.947 6.947 0 0 0 4.981 2.101c.437 0 .864-.045 1.279-.123.04.032.079.065.13.085l2.41.96.152.758.178.885-3.003-.427zm4.041.178-.313-1.558 1.446-1.08.947 1.257-2.08 1.381zm3.754-2.831-.838.785-.931-1.236.831-.637a.735.735 0 0 1 .543-.143.718.718 0 0 1 .48.284.713.713 0 0 1-.085.947z"/>
      <path d="m13.602 18.544-2.143-2.133a.534.534 0 0 0-.753 0l-2.142 2.133a.537.537 0 0 0 0 .756l2.142 2.133a.536.536 0 0 0 .753 0l2.143-2.133a.535.535 0 0 0 0-.756zm-2.519 1.759-1.387-1.381 1.387-1.381 1.387 1.381-1.387 1.381zM17.164 5.071l-.258 1.036c.071.018 1.738.452 1.738 2.149h1.067c0-2.017-1.666-2.965-2.547-3.185zM19.711 9.322h-1.067v1.067h1.067V9.322z"/>
    </symbol>
    <symbol id="icon-clock" viewBox="0 0 32 32">
      <path d="M0 0h32v32H0V0z"/>
      <path d="M-272-408h720v1734h-720V-408z"/>
      <path stroke-width=".5" d="M-48-11.75H80c.966 0 1.75.784 1.75 1.75v52A1.75 1.75 0 0 1 80 43.75H-48A1.75 1.75 0 0 1-49.75 42v-52c0-.966.783-1.75 1.75-1.75z"/>
      <path d="M31.297 15.301C31.295 6.849 24.442-.002 15.989 0S.686 6.855.688 15.308a15.304 15.304 0 0 0 10.649 14.576.662.662 0 0 0 .529-.065.637.637 0 0 0 .283-.356l3.865-12.25a1.912 1.912 0 1 0-.84-3.635l-5.106-5.107a.637.637 0 0 0-.902.902l5.103 5.109a1.876 1.876 0 0 0 .536 2.309l-3.683 11.673C3.844 25.783.118 17.71 2.799 10.432S13.553-.572 20.831 2.109c7.278 2.681 11.004 10.754 8.323 18.032a14.042 14.042 0 0 1-7.462 7.973l-.398-1.874a.637.637 0 0 0-1.049-.344l-3.837 3.426a.637.637 0 0 0 .231 1.084l4.899 1.564a.638.638 0 0 0 .819-.74l-.391-1.839a15.255 15.255 0 0 0 9.329-14.089zm-15.305-.637a.638.638 0 1 1 0 1.277.638.638 0 0 1 0-1.277zm2.101 14.864 2.184-1.948.603 2.84-2.787-.892z"/>
      <path d="M15.354 3.185V4.46a.638.638 0 1 0 1.276 0V3.185a.638.638 0 0 0-1.276 0zM3.876 14.664a.638.638 0 0 0 0 1.276h1.275a.638.638 0 1 0 0-1.276H3.876zM28.108 15.939a.638.638 0 1 0 0-1.276h-1.275a.638.638 0 0 0 0 1.276h1.275z"/>
    </symbol>
    <symbol id="icon-antenna" viewBox="0 0 32 32">
      <path d="M0 0h32v32H0V0z"/>
      <path d="M-128-408h720v1734h-720V-408z"/>
      <path stroke-width=".5" d="M-48-11.75H80c.966 0 1.75.784 1.75 1.75v52A1.75 1.75 0 0 1 80 43.75H-48A1.75 1.75 0 0 1-49.75 42v-52c0-.966.783-1.75 1.75-1.75z"/>
      <path d="m30.773 22.098-8.443-8.505.937-4.615c.242.094.499.144.758.146h.006a2.159 2.159 0 1 0-2.008-1.435l-4.96.605L8.972.161a.534.534 0 0 0-.377-.16.532.532 0 0 0-.373.155L6.709 1.66a.534.534 0 0 0 0 .754l.814.826a14.943 14.943 0 0 0 2.519 17.663.513.513 0 0 0 .146.098c-.034.18-.051.364-.052.547v6.187h-6.4a2.67 2.67 0 0 0-2.667 2.667v1.067c0 .295.239.533.533.533h24.533a.533.533 0 0 0 .533-.533v-1.067a2.67 2.67 0 0 0-2.667-2.667h-6.4v-2.742a15.09 15.09 0 0 0 3.049.32 14.854 14.854 0 0 0 7.04-1.783l.818.823a.534.534 0 0 0 .377.16.532.532 0 0 0 .373-.155l1.513-1.504a.534.534 0 0 0 0-.754zM23.28 6.233a1.067 1.067 0 1 1 .753 1.822h-.003a1.067 1.067 0 0 1-.747-1.823h-.002zm-1.256 3.505-.598 2.946-1.175-1.182 1.774-1.763zm-.605-.902-1.92 1.909-1.485-1.493 3.405-.415zM24.004 28.8a1.6 1.6 0 0 1 1.6 1.6v.533H2.137V30.4a1.6 1.6 0 0 1 1.6-1.6h20.267zm-7.467-2.133v1.067h-5.333v-1.067h5.333zM11.204 25.6v-4.053c0-1.294 1.196-2.347 2.667-2.347s2.667 1.053 2.667 2.347V25.6h-5.333zm6.4-1.696v-2.357c0-1.882-1.675-3.413-3.733-3.413a3.8 3.8 0 0 0-3.281 1.786A13.87 13.87 0 0 1 8.311 4.033l18.602 18.708a13.818 13.818 0 0 1-9.309 1.163zm11.289-.684L7.836 2.039l.755-.752 7.935 7.98c.004 0 .006.007.01.01l13.115 13.191-.757.752z"/>
      <path d="M13.876 20.267h-.005a1.6 1.6 0 1 0-.004 3.2h.005a1.6 1.6 0 1 0 .004-3.2zm.373 1.978a.534.534 0 0 1-.752-.756.534.534 0 0 1 .373-.155.534.534 0 0 1 .374.911h.005z"/>
    </symbol>
    <symbol id="icon-linkedin" viewBox="0 0 32 32">
      <path d="M0 0h32v32H0V0z"/>
      <path d="M-752-3472h2880v6936H-752v-6936z"/>
      <path d="M-752-1200h2880V360H-752v-1560z"/>
      <path d="M-440-736H88v848a8 8 0 0 1-8 8h-512a8 8 0 0 1-8-8v-848z"/>
      <path d="M56 16c0 11.046-4.477 21.046-11.716 28.284S27.045 56 16 56C4.954 56-5.046 51.523-12.284 44.284S-24 27.045-24 16c0-11.046 4.477-21.046 11.716-28.284S4.955-24 16-24c11.046 0 21.046 4.477 28.284 11.716S56 4.955 56 16z"/>
      <path d="M31.992 32v-.001H32V20.263c0-5.741-1.236-10.164-7.948-10.164-3.227 0-5.392 1.771-6.276 3.449h-.093v-2.913h-6.364v21.364h6.627V21.42c0-2.785.528-5.479 3.977-5.479 3.399 0 3.449 3.179 3.449 5.657v10.401h6.62zM.528 10.636h6.635V32H.528V10.636zM3.843 0C1.722 0 0 1.721 0 3.843s1.721 3.879 3.843 3.879c2.121 0 3.843-1.757 3.843-3.879A3.846 3.846 0 0 0 3.843 0z"/>
    </symbol>
    <symbol id="icon-facebook" viewBox="0 0 32 32">
      <path d="M0 0h32v32H0V0z"/>
      <path d="M-624-3472h2880v6936H-624v-6936z"/>
      <path d="M-624-1200h2880V360H-624v-1560z"/>
      <path d="M-312-736h528v848a8 8 0 0 1-8 8h-512a8 8 0 0 1-8-8v-848z"/>
      <path d="M56 16c0 11.046-4.477 21.046-11.716 28.284S27.045 56 16 56C4.954 56-5.046 51.523-12.284 44.284S-24 27.045-24 16c0-11.046 4.477-21.046 11.716-28.284S4.955-24 16-24c11.046 0 21.046 4.477 28.284 11.716S56 4.955 56 16z"/>
      <path d="M21.329 5.313h2.921V.225C23.746.156 22.013 0 19.994 0c-4.212 0-7.097 2.649-7.097 7.519V12H8.249v5.688h4.648V32h5.699V17.689h4.46l.708-5.688h-5.169V8.082c.001-1.644.444-2.769 2.735-2.769z"/>
    </symbol>
    <symbol id="icon-twitter" viewBox="0 0 32 32">
      <path d="M0 0h32v32H0V0z"/>
      <path d="M-496-3472h2880v6936H-496v-6936z"/>
      <path d="M-496-1200h2880V360H-496v-1560z"/>
      <path d="M-184-736h528v848a8 8 0 0 1-8 8h-512a8 8 0 0 1-8-8v-848z"/>
      <path d="M56 16c0 11.046-4.477 21.046-11.716 28.284S27.045 56 16 56C4.954 56-5.046 51.523-12.284 44.284S-24 27.045-24 16c0-11.046 4.477-21.046 11.716-28.284S4.955-24 16-24c11.046 0 21.046 4.477 28.284 11.716S56 4.955 56 16z"/>
      <path d="M32 6.078c-1.19.522-2.458.868-3.78 1.036a6.523 6.523 0 0 0 2.886-3.626 13.11 13.11 0 0 1-4.16 1.588A6.574 6.574 0 0 0 22.154 3c-3.632 0-6.556 2.948-6.556 6.562 0 .52.044 1.02.152 1.496-5.454-.266-10.28-2.88-13.522-6.862a6.605 6.605 0 0 0-.898 3.316 6.57 6.57 0 0 0 2.914 5.452 6.479 6.479 0 0 1-2.964-.808v.072c0 3.188 2.274 5.836 5.256 6.446a6.548 6.548 0 0 1-1.72.216 5.8 5.8 0 0 1-1.242-.112c.85 2.598 3.262 4.508 6.13 4.57a13.182 13.182 0 0 1-8.134 2.798c-.538 0-1.054-.024-1.57-.09A18.469 18.469 0 0 0 10.064 29c12.072 0 18.672-10 18.672-18.668 0-.29-.01-.57-.024-.848A13.087 13.087 0 0 0 32 6.078z"/>
    </symbol>
    <symbol id="icon-instagram" viewBox="0 0 32 32">
      <path d="M0 0h32v32H0V0z"/>
      <path d="M-368-3472h2880v6936H-368v-6936z"/>
      <path d="M-368-1200h2880V360H-368v-1560z"/>
      <path d="M-56-736h528v848a8 8 0 0 1-8 8H-48a8 8 0 0 1-8-8v-848z"/>
      <path d="M56 16c0 11.046-4.477 21.046-11.716 28.284S27.045 56 16 56C4.954 56-5.046 51.523-12.284 44.284S-24 27.045-24 16c0-11.046 4.477-21.046 11.716-28.284S4.955-24 16-24c11.046 0 21.046 4.477 28.284 11.716S56 4.955 56 16z"/>
      <path d="M31.969 9.408c-.075-1.7-.35-2.869-.744-3.882a7.803 7.803 0 0 0-1.85-2.838A7.867 7.867 0 0 0 26.543.844C25.524.45 24.361.175 22.661.1 20.948.019 20.404 0 16.06 0s-4.888.019-6.595.094c-1.7.075-2.869.35-3.882.744a7.803 7.803 0 0 0-2.838 1.85A7.867 7.867 0 0 0 .901 5.52C.507 6.539.232 7.702.157 9.402c-.081 1.713-.1 2.257-.1 6.601s.019 4.888.094 6.595c.075 1.7.35 2.869.744 3.882a7.895 7.895 0 0 0 1.85 2.838 7.867 7.867 0 0 0 2.832 1.844c1.019.394 2.182.669 3.882.744 1.706.075 2.25.094 6.595.094s4.888-.019 6.595-.094c1.7-.075 2.869-.35 3.882-.744a8.181 8.181 0 0 0 4.682-4.682c.394-1.019.669-2.182.744-3.882.075-1.707.094-2.25.094-6.595s-.006-4.888-.081-6.595zm-2.882 13.065c-.069 1.563-.331 2.407-.55 2.969a5.31 5.31 0 0 1-3.038 3.038c-.563.219-1.413.481-2.969.55-1.688.075-2.194.094-6.464.094s-4.782-.019-6.464-.094c-1.563-.069-2.407-.331-2.969-.55a4.926 4.926 0 0 1-1.838-1.194 4.974 4.974 0 0 1-1.194-1.838c-.219-.563-.481-1.413-.55-2.969-.075-1.688-.094-2.194-.094-6.464s.019-4.782.094-6.464c.069-1.563.331-2.407.55-2.969a4.868 4.868 0 0 1 1.2-1.838A4.974 4.974 0 0 1 6.639 3.55c.563-.219 1.413-.481 2.969-.55 1.688-.075 2.194-.094 6.464-.094 4.276 0 4.782.019 6.464.094 1.563.069 2.407.331 2.969.55a4.914 4.914 0 0 1 1.838 1.194 4.974 4.974 0 0 1 1.194 1.838c.219.563.481 1.413.55 2.969.075 1.688.094 2.194.094 6.464s-.019 4.77-.094 6.458z"/>
      <path d="M16.059 7.783c-4.538 0-8.22 3.682-8.22 8.22s3.682 8.22 8.22 8.22 8.22-3.682 8.22-8.22-3.682-8.22-8.22-8.22zm0 13.552a5.333 5.333 0 0 1 0-10.664 5.333 5.333 0 0 1 0 10.664zM26.524 7.458a1.919 1.919 0 1 1-3.838 0 1.919 1.919 0 0 1 3.838 0z"/>
    </symbol>
  </defs>
</svg>
